<svg xmlns="http://www.w3.org/2000/svg" viewBox="0 0 28.87 28.87" id="soundcloud"><g data-name="Layer 2"><g data-name="Layer 1"><rect width="28.87" height="28.87" fill="#f50" rx="6.48" ry="6.48"></rect><path fill="#fff" d="M7.2 17.55h.1l.1-1.44-.1-1.44a.1.1 0 10-.19 0L7 16.11l.1 1.44zM6.63 17.07V17l.19-.86-.19-1h-.1l-.1 1 .1.86c0 .07 0 .07.1.07zM7.87 14.39c0-.1 0-.1-.1-.1v.1l-.19 1.72.19 1.63v.1c.1 0 .1 0 .1-.1l.19-1.63zM8.45 17.93a.09.09 0 00.1-.1l.19-1.72-.19-1.82a.09.09 0 00-.1-.1l-.1.1-.1 1.82.1 1.72zM9.12 17.93a.09.09 0 00.1-.1l.19-1.72-.19-1.63a.09.09 0 00-.1-.1c-.1 0-.1 0-.1.1l-.19 1.63.17 1.73c0 .09 0 .09.12.09zM10 16.11l-.1-2.68a.09.09 0 00-.1-.1c-.1 0-.19 0-.19.1l-.1 2.68.1 1.72c0 .1.1.1.19.1a.09.09 0 00.1-.1zM10.36 17.93c.1 0 .19 0 .19-.1l.1-1.72-.1-3.35a.33.33 0 00-.19-.1l-.1.1-.1 3.35.1 1.72a.09.09 0 00.1.1zM11 12.38c-.1 0-.1.1-.1.19l-.1 3.54.1 1.72c0 .1 0 .1.1.1s.19 0 .19-.1l.1-1.72-.1-3.54a.21.21 0 00-.19-.19zM11.71 17.93c.1 0 .19 0 .19-.1l.1-1.72-.1-3.74c0-.1-.1-.1-.19-.1s-.19 0-.19.1l-.1 3.74.1 1.72c-.01.1.09.1.19.1zM12.38 17.93a.21.21 0 00.19-.19l.1-1.63-.1-3.64a.19.19 0 00-.38 0l-.1 3.64.1 1.63a.21.21 0 00.19.19zM13.33 16.11l-.1-3.45a.19.19 0 10-.38 0l-.1 3.45.1 1.63a.19.19 0 10.38 0zM13.72 17.93a.21.21 0 00.19-.19l.1-1.63-.1-4.11a.19.19 0 10-.38 0l-.1 4.12.1 1.63a.21.21 0 00.19.18zM14.39 11.42a.21.21 0 00-.19.19l-.1 4.5.1 1.63a.19.19 0 10.38 0l.1-1.63-.1-4.5a.21.21 0 00-.19-.19zM15.06 17.93h5.46A1.92 1.92 0 0022.44 16a1.94 1.94 0 00-1.92-2 1.87 1.87 0 00-.77.1 3.52 3.52 0 00-3.45-3.16 5.65 5.65 0 00-1.34.19c-.1.1-.19.1-.19.29v6.32c0 .1.1.19.29.19z"></path></g></g></svg>